<svg aria-hidden="true" style="position: absolute; width: 0; height: 0; overflow: hidden;" version="1.1"
    xmlns="http://www.w3.org/2000/svg" xmlns:xlink="http://www.w3.org/1999/xlink">
    <defs>
        <symbol id="icon-default-background" viewBox="0 0 32 32">
            <path fill="none" stroke-linejoin="round" stroke-linecap="round" stroke-miterlimit="4" stroke-width="2" d="M25.333 28h1.347c1.295 0 1.942 0 2.299-0.27 0.311-0.235 0.503-0.595 0.526-0.984 0.027-0.447-0.332-0.985-1.051-2.063l-4.014-6.021c-0.594-0.89-0.89-1.335-1.264-1.49-0.327-0.136-0.694-0.136-1.021 0-0.374 0.155-0.671 0.6-1.264 1.49l-0.992 1.488M25.333 28l-10.246-14.8c-0.589-0.851-0.884-1.277-1.252-1.426-0.322-0.131-0.682-0.131-1.004 0-0.368 0.15-0.663 0.575-1.252 1.426l-7.928 11.452c-0.751 1.084-1.126 1.626-1.105 2.077 0.019 0.393 0.21 0.757 0.522 0.996 0.359 0.274 1.018 0.274 2.337 0.274h19.928zM28 8c0 2.209-1.791 4-4 4s-4-1.791-4-4c0-2.209 1.791-4 4-4s4 1.791 4 4z"></path>
        </symbol>

        <symbol id="icon-logo-lightning" viewBox="0 0 12 16">
            <path d="M3.33142 15.0269C3.57586 13.7553 3.78408 12.4168 4.0783 11.0782C4.22315 10.3777 4.04662 10.0788 3.26353 10.1324C2.48044 10.1859 1.60681 10.1591 0.773932 10.1324C-0.0589508 10.1056 -0.208327 9.68618 0.271486 9.08831C2.63434 6.17034 5.02435 3.28807 7.40531 0.414724C7.67237 0.0890188 7.98018 -0.142991 8.41925 0.102404C8.85832 0.347798 8.76779 0.651196 8.69537 1.01706C8.43283 2.35557 8.21556 3.69409 7.92586 5.00583C7.77648 5.68401 7.97112 5.92495 8.67726 5.89818C9.38596 5.86248 10.096 5.86248 10.8047 5.89818C11.2076 5.89818 11.7372 5.68848 11.9454 6.23727C12.1536 6.78606 11.7146 7.01807 11.4928 7.34378C10.5875 8.45921 9.67008 9.57315 8.74063 10.6856C7.37966 12.3097 6.02924 13.9278 4.68938 15.54C4.42685 15.8567 4.13262 16.1111 3.68449 15.9504C3.23637 15.7898 3.33142 15.4106 3.33142 15.0269Z"></path>
        </symbol>

        <symbol id="icon-help" viewBox="0 0 32 32">
            <path fill="none"  stroke-linejoin="round" stroke-linecap="round" stroke-miterlimit="4" stroke-width="2.88" d="M16 29.333c7.364 0 13.334-5.97 13.334-13.334s-5.97-13.334-13.334-13.334v0c-7.364 0-13.334 5.97-13.334 13.334s5.97 13.334 13.334 13.334v0z"></path>
            <path fill="none"  stroke-linejoin="round" stroke-linecap="round" stroke-miterlimit="4" stroke-width="2.88" d="M12.12 12c0.564-1.569 2.040-2.671 3.773-2.671 2.209 0 4 1.791 4 4 0 0.001 0 0.003 0 0.004v-0c0 2.667-4 4-4 4M16 22.666h0.019"></path>
        </symbol>

        <symbol id="icon-add" viewBox="0 0 32 32">
            <path stroke-linejoin="round" stroke-linecap="round" stroke-miterlimit="4" stroke-width="2.88" d="M16 6.666v18.667"></path>
            <path stroke-linejoin="round" stroke-linecap="round" stroke-miterlimit="4" stroke-width="2.88" d="M6.667 16h18.667"></path>
        </symbol>

        <symbol id="icon-hexagon" viewBox="0 0 32 32">
            <path fill="none"  stroke-linejoin="round" stroke-linecap="round" stroke-miterlimit="4"
                stroke-width="2.6667"
                d="M14.964 3.243c0.379-0.21 0.569-0.316 0.768-0.356 0.081-0.017 0.173-0.027 0.268-0.027s0.188 0.010 0.277 0.029l-0.009-0.002c0.201 0.039 0.391 0.146 0.768 0.356l9.867 5.481c0.398 0.222 0.599 0.332 0.745 0.491 0.124 0.135 0.221 0.297 0.282 0.476l0.003 0.009c0.068 0.204 0.068 0.432 0.068 0.889v10.823c0 0.457 0 0.684-0.068 0.889-0.063 0.188-0.16 0.35-0.285 0.486l0.001-0.001c-0.146 0.158-0.347 0.268-0.747 0.491l-9.867 5.481c-0.377 0.21-0.565 0.315-0.764 0.356-0.081 0.017-0.174 0.027-0.269 0.027s-0.188-0.010-0.278-0.029l0.009 0.002c-0.201-0.041-0.391-0.146-0.768-0.356l-9.867-5.481c-0.398-0.222-0.599-0.332-0.745-0.491-0.124-0.135-0.221-0.297-0.282-0.476l-0.003-0.009c-0.068-0.204-0.068-0.432-0.068-0.889v-10.823c0-0.457 0-0.684 0.068-0.889 0.063-0.188 0.16-0.35 0.285-0.486l-0.001 0.001c0.146-0.158 0.347-0.268 0.747-0.491l9.867-5.481z">
            </path>
        </symbol>
        <symbol id="icon-lightning" viewBox="0 0 32 32">
            <path fill="none"  stroke-linejoin="round" stroke-linecap="round" stroke-miterlimit="4"
                stroke-width="2.6667"
                d="M18.999 2.667h-7.675c-0.238 0-0.357 0-0.462 0.036-0.098 0.034-0.182 0.087-0.251 0.155l0-0c-0.080 0.078-0.133 0.185-0.24 0.4l-5.6 11.2c-0.256 0.51-0.384 0.766-0.354 0.974 0.029 0.186 0.131 0.345 0.275 0.447l0.002 0.001c0.172 0.121 0.46 0.121 1.031 0.121h8.274l-4 13.333 16.258-16.86c0.548-0.569 0.821-0.853 0.837-1.095 0.001-0.013 0.001-0.028 0.001-0.044 0-0.204-0.091-0.386-0.235-0.508l-0.001-0.001c-0.187-0.158-0.581-0.158-1.371-0.158h-9.49l2.999-8z">
            </path>
        </symbol>
        <symbol id="icon-loading" viewBox="0 0 32 32">
            <path fill="none"  stroke-linejoin="round" stroke-linecap="round" stroke-miterlimit="4"
                stroke-width="2.6667"
                d="M4.453 22.667c-0.536-0.913-0.853-2.011-0.853-3.183 0-2.183 1.099-4.11 2.775-5.256l0.022-0.014 0.004-0.004c1-0.684 2.235-1.092 3.566-1.092 1.408 0 2.709 0.457 3.764 1.23l-0.018-0.012 4.576 3.328c1.036 0.761 2.337 1.217 3.745 1.217 1.331 0 2.567-0.408 3.589-1.107l-0.022 0.014 0.004-0.002c1.698-1.16 2.797-3.086 2.797-5.269 0-1.173-0.317-2.271-0.871-3.214l0.016 0.030M22.67 27.547c-0.913 0.536-2.010 0.852-3.181 0.852-2.184 0-4.112-1.1-5.258-2.777l-0.014-0.022-0.004-0.004c-0.684-1-1.093-2.236-1.093-3.567 0-1.407 0.457-2.708 1.229-3.763l-0.012 0.018 3.328-4.576c0.761-1.037 1.218-2.338 1.218-3.746 0-1.331-0.408-2.566-1.106-3.588l0.014 0.022-0.005-0.002c-1.161-1.696-3.087-2.795-5.269-2.795-1.172 0-2.271 0.317-3.214 0.87l0.030-0.016M25.428 6.572c2.413 2.413 3.905 5.746 3.905 9.428s-1.492 7.015-3.905 9.428l0-0c-2.413 2.413-5.746 3.905-9.428 3.905s-7.015-1.492-9.428-3.905l0 0c-2.413-2.413-3.905-5.746-3.905-9.428s1.492-7.015 3.905-9.428l-0 0c2.413-2.413 5.746-3.905 9.428-3.905s7.015 1.492 9.428 3.905l-0-0z">
            </path>
        </symbol>
        <symbol id="icon-logo" viewBox="0 0 32 32">
            <path fill="#1f1f1f"
                d="M24 0h-16c-4.418 0-8 3.582-8 8v0 16c0 4.418 3.582 8 8 8v0h16c4.418 0 8-3.582 8-8v0-16c0-4.418-3.582-8-8-8v0z">
            </path>
            <path fill="#fff"
                d="M13.331 23.027c0.245-1.272 0.453-2.61 0.747-3.949 0.145-0.7-0.031-1-0.814-0.946-0.784 0.054-1.657 0.027-2.49 0-0.833-0.026-0.982-0.446-0.502-1.044 2.362-2.918 4.752-5.8 7.133-8.673 0.267-0.326 0.575-0.558 1.014-0.313 0.44 0.246 0.349 0.55 0.276 0.915-0.262 1.339-0.48 2.677-0.77 3.989-0.149 0.678 0.046 0.919 0.752 0.892 0.318-0.017 0.69-0.027 1.064-0.027s0.746 0.010 1.116 0.029l-0.052-0.002c0.403 0 0.932-0.21 1.14 0.34 0.209 0.548-0.23 0.78-0.452 1.106-1.327 1.642-2.227 2.729-3.135 3.81l0.383-0.468c-1.361 1.624-2.712 3.242-4.052 4.854-0.262 0.317-0.556 0.571-1.005 0.41-0.448-0.16-0.353-0.54-0.353-0.923z">
            </path>
        </symbol>
        <symbol id="icon-logout" viewBox="0 0 32 32">
            <path stroke-linejoin="round" stroke-linecap="round" stroke-miterlimit="4" stroke-width="1.5"
                d="M11.867 10.080c0.413-4.8 2.88-6.76 8.28-6.76h0.173c5.96 0 8.347 2.387 8.347 8.347v8.693c0 5.96-2.387 8.347-8.347 8.347h-0.173c-5.36 0-7.827-1.934-8.267-6.654M2.667 16h17.173">
            </path>
            <path stroke-linejoin="round" stroke-linecap="round" stroke-miterlimit="4" stroke-width="1.5"
                d="M16.867 11.533l4.466 4.467-4.466 4.467"></path>
        </symbol>
        <symbol id="icon-pencil" viewBox="0 0 32 32">
            <path fill="none" stroke-linejoin="round" stroke-linecap="round" stroke-miterlimit="4"
                stroke-width="2.6"
                d="M3.334 28.666l7.398-2.844c0.474-0.182 0.71-0.274 0.932-0.392 0.196-0.106 0.384-0.228 0.56-0.366 0.2-0.154 0.378-0.332 0.736-0.69l15.040-15.040c0.663-0.679 1.072-1.609 1.072-2.634 0-2.083-1.689-3.772-3.772-3.772-1.025 0-1.955 0.409-2.635 1.073l-15.039 15.039c-0.358 0.36-0.538 0.538-0.692 0.736-0.136 0.176-0.258 0.364-0.364 0.56-0.12 0.22-0.21 0.46-0.392 0.932l-2.844 7.4zM3.334 28.666l2.744-7.134c0.196-0.51 0.294-0.766 0.462-0.882 0.106-0.075 0.238-0.12 0.381-0.12 0.044 0 0.087 0.004 0.129 0.012l-0.004-0.001c0.2 0.040 0.394 0.232 0.78 0.62l3.014 3.010c0.386 0.388 0.58 0.58 0.618 0.782 0.008 0.038 0.012 0.081 0.012 0.125 0 0.143-0.045 0.275-0.121 0.383l0.001-0.002c-0.116 0.168-0.372 0.266-0.882 0.462l-7.134 2.744z">
            </path>
        </symbol>
        <symbol id="icon-Project" viewBox="0 0 32 32">
            <path fill="none"  stroke-linejoin="miter" stroke-linecap="butt" stroke-miterlimit="4"
                stroke-width="2.6667"
                d="M4.396 6.978c0.309-1.282 1.299-2.272 2.558-2.576l0.024-0.005c0.507-0.124 1.090-0.196 1.689-0.196s1.182 0.071 1.739 0.206l-0.050-0.010c1.282 0.309 2.272 1.299 2.576 2.558l0.005 0.024c0.124 0.507 0.196 1.090 0.196 1.689s-0.071 1.182-0.206 1.739l0.010-0.050c-0.309 1.282-1.299 2.272-2.558 2.576l-0.024 0.005c-0.507 0.124-1.090 0.196-1.689 0.196s-1.182-0.071-1.739-0.206l0.050 0.010c-1.282-0.309-2.272-1.299-2.577-2.558l-0.005-0.024c-0.124-0.507-0.196-1.090-0.196-1.689s0.071-1.182 0.206-1.739l-0.010 0.050zM4.396 21.644c0.309-1.282 1.299-2.273 2.558-2.576l0.024-0.005c0.507-0.124 1.090-0.196 1.689-0.196s1.182 0.071 1.739 0.206l-0.050-0.010c1.282 0.309 2.272 1.299 2.576 2.558l0.005 0.024c0.124 0.507 0.195 1.090 0.195 1.689s-0.071 1.182-0.206 1.739l0.010-0.050c-0.309 1.282-1.299 2.273-2.558 2.576l-0.024 0.005c-0.507 0.124-1.090 0.196-1.689 0.196s-1.182-0.071-1.739-0.206l0.050 0.010c-1.282-0.309-2.272-1.299-2.577-2.558l-0.005-0.024c-0.124-0.507-0.195-1.090-0.195-1.689s0.071-1.182 0.206-1.739l-0.010 0.050zM19.063 6.978c0.309-1.282 1.299-2.272 2.558-2.576l0.024-0.005c0.507-0.124 1.090-0.195 1.689-0.195s1.182 0.071 1.739 0.206l-0.050-0.010c1.282 0.309 2.273 1.299 2.576 2.558l0.005 0.024c0.124 0.507 0.196 1.090 0.196 1.689s-0.071 1.182-0.206 1.739l0.010-0.050c-0.309 1.282-1.299 2.272-2.558 2.576l-0.024 0.005c-0.507 0.124-1.090 0.195-1.689 0.195s-1.182-0.071-1.739-0.206l0.050 0.010c-1.282-0.309-2.273-1.299-2.576-2.558l-0.005-0.024c-0.124-0.507-0.196-1.090-0.196-1.689s0.071-1.182 0.206-1.739l-0.010 0.050zM19.063 21.644c0.308-1.282 1.299-2.273 2.558-2.576l0.024-0.005c0.507-0.124 1.090-0.196 1.689-0.196s1.182 0.071 1.739 0.206l-0.050-0.010c1.28 0.3 2.281 1.301 2.581 2.581 0.124 0.507 0.196 1.090 0.196 1.689s-0.071 1.182-0.206 1.739l0.010-0.050c-0.308 1.282-1.299 2.273-2.558 2.576l-0.024 0.005c-0.507 0.124-1.090 0.196-1.689 0.196s-1.182-0.071-1.739-0.206l0.050 0.010c-1.282-0.308-2.273-1.299-2.576-2.558l-0.005-0.024c-0.124-0.507-0.196-1.090-0.196-1.689s0.071-1.182 0.206-1.739l-0.010 0.050z">
            </path>
        </symbol>
        <symbol id="icon-puzzle" viewBox="0 0 32 32">
            <path fill="none"  stroke-linejoin="round" stroke-linecap="round" stroke-miterlimit="4"
                stroke-width="2.6667"
                d="M16 2.667l4.8 4.8c3.2-8.4 12.133 0.533 3.733 3.733l4.8 4.8-4.8 4.8c-3.2-8.4-12.133 0.533-3.733 3.733l-4.8 4.8-4.8-4.8c-3.2 8.4-12.133-0.533-3.733-3.733l-4.8-4.8 4.8-4.8c3.2 8.4 12.133-0.533 3.733-3.733l4.8-4.8z">
            </path>
        </symbol>
        <symbol id="icon-star" viewBox="0 0 32 32">
            <path fill="none"  stroke-linejoin="round" stroke-linecap="round" stroke-miterlimit="4"
                stroke-width="2.6667"
                d="M16 2.667l2.683 6.974c0.375 0.978 0.564 1.467 0.857 1.877 0.258 0.364 0.578 0.684 0.942 0.942 0.409 0.293 0.9 0.48 1.877 0.857l6.974 2.683-6.974 2.683c-0.978 0.375-1.467 0.564-1.877 0.857-0.367 0.263-0.679 0.575-0.934 0.93l-0.008 0.012c-0.293 0.409-0.48 0.9-0.857 1.877l-2.683 6.974-2.683-6.974c-0.375-0.978-0.564-1.467-0.857-1.877-0.263-0.367-0.575-0.679-0.93-0.934l-0.012-0.008c-0.409-0.293-0.9-0.48-1.877-0.857l-6.974-2.683 6.974-2.683c0.978-0.375 1.467-0.564 1.877-0.857 0.367-0.263 0.679-0.575 0.934-0.93l0.008-0.012c0.293-0.409 0.48-0.9 0.857-1.877l2.683-6.974z">
            </path>
        </symbol>
        <symbol id="icon-trash" viewBox="0 0 32 32">
            <path fill="none" stroke-linejoin="round" stroke-linecap="round" stroke-miterlimit="4"
                stroke-width="2.6"
                d="M12 4h8M4 8h24M6.666 8l0.802 12.018c0.148 2.23 0.224 3.346 0.588 4.242 0.673 1.626 1.993 2.868 3.63 3.424l0.042 0.012c0.918 0.304 2.036 0.304 4.272 0.304v0c2.236 0 3.354 0 4.274-0.304 1.678-0.568 2.997-1.811 3.655-3.396l0.015-0.040c0.366-0.896 0.44-2.012 0.588-4.242l0.8-12.018">
            </path>
        </symbol>
        <symbol id="icon-active" viewBox="0 0 32 32">
            <path fill="none" stroke-linejoin="round" stroke-linecap="round" stroke-miterlimit="4"
                stroke-width="2.6"
                d="M4.45 9.334c2.348-4.014 6.638-6.667 11.548-6.667 7.364 0 13.334 5.97 13.334 13.334s-5.97 13.334-13.334 13.334c-4.909 0-9.199-2.653-11.514-6.604l-0.034-0.063">
            </path>
            <path fill="none"  stroke-linejoin="round" stroke-linecap="round" stroke-miterlimit="4"
                stroke-width="2.6" d="M16 21.334l5.334-5.334-5.334-5.334M2.666 16h18.668"></path>
        </symbol>
        <symbol id="icon-bell" viewBox="0 0 32 32">
            <path fill="none"  stroke-linejoin="round" stroke-linecap="round" stroke-miterlimit="4"
                stroke-width="3"
                d="M12.472 28c0.94 0.83 2.176 1.334 3.528 1.334s2.588-0.504 3.528-1.334M24 10.666c0-4.418-3.582-8-8-8s-8 3.582-8 8v0c0 4.12-1.040 6.942-2.2 8.808-0.98 1.574-1.47 2.36-1.452 2.58 0.020 0.244 0.072 0.336 0.268 0.48 0.176 0.132 0.974 0.132 2.568 0.132h17.63c1.596 0 2.394 0 2.57-0.13 0.196-0.146 0.248-0.24 0.268-0.48 0.018-0.22-0.472-1.008-1.452-2.582-1.16-1.866-2.2-4.686-2.2-8.808z">
            </path>
        </symbol>
        <symbol id="icon-colors" viewBox="0 0 32 32">
            <path fill="none"  stroke-linejoin="round" stroke-linecap="round" stroke-miterlimit="4"
                stroke-width="2.6667"
                d="M16 27.296c1.408 1.262 3.278 2.033 5.328 2.033 4.418 0 8-3.582 8-8 0-3.667-2.467-6.758-5.832-7.703l-0.056-0.014M8.56 13.612c-3.418 0.962-5.882 4.052-5.882 7.717 0 4.415 3.575 7.995 7.988 8.004h0.001c0.001 0 0.002 0 0.003 0 4.418 0 8-3.582 8-8 0-1.061-0.207-2.074-0.582-3.001l0.019 0.054M24 10.667c0 4.418-3.582 8-8 8s-8-3.582-8-8v0c0-4.418 3.582-8 8-8s8 3.582 8 8v0z">
            </path>
        </symbol>
        <symbol id="icon-container" viewBox="0 0 32 32">
            <path fill="none"  stroke-linejoin="round" stroke-linecap="round" stroke-miterlimit="4"
                stroke-width="2.6667"
                d="M27.333 9.703l-11.333 6.297M16 16l-11.333-6.297M16 16v12.667M28 21.412v-10.823c0-0.457 0-0.684-0.068-0.889-0.063-0.188-0.16-0.35-0.285-0.486l0.001 0.001c-0.146-0.158-0.347-0.268-0.747-0.491l-9.867-5.481c-0.377-0.21-0.565-0.316-0.764-0.356-0.081-0.017-0.174-0.027-0.269-0.027s-0.188 0.010-0.278 0.029l0.009-0.002c-0.201 0.039-0.391 0.146-0.768 0.356l-9.867 5.481c-0.398 0.222-0.599 0.332-0.745 0.491-0.124 0.135-0.221 0.297-0.282 0.476l-0.003 0.009c-0.068 0.204-0.068 0.432-0.068 0.889v10.823c0 0.457 0 0.684 0.068 0.889 0.063 0.188 0.16 0.35 0.285 0.486l-0.001-0.001c0.146 0.158 0.347 0.268 0.747 0.491l9.867 5.481c0.377 0.21 0.565 0.315 0.764 0.356 0.178 0.037 0.361 0.037 0.539 0 0.201-0.041 0.391-0.146 0.768-0.356l9.867-5.481c0.398-0.222 0.599-0.332 0.745-0.491 0.124-0.135 0.221-0.297 0.282-0.476l0.003-0.009c0.068-0.204 0.068-0.432 0.068-0.889z">
            </path>
        </symbol>
        <symbol id="icon-filter" viewBox="0 0 32 32">
            <path fill="none" stroke-linecap="round" stroke-miterlimit="4" stroke-width="3"
                d="M29.334 4h-26.668l10.668 12.614v8.72l5.334 2.666v-11.386l10.666-12.614z"></path>
        </symbol>
        <symbol id="icon-eye" viewBox="0 0 32 32">
            <path fill="" stroke="" stroke-linejoin="round" stroke-linecap="round" stroke-miterlimit="4"
                stroke-width="2.3111"
                d="M1.333 16s5.333-10.667 14.667-10.667 14.667 10.667 14.667 10.667-5.333 10.667-14.667 10.667-14.667-10.667-14.667-10.667z">
            </path>
            <path fill="" stroke="" stroke-linejoin="round" stroke-linecap="round" stroke-miterlimit="4"
                stroke-width="2.3111" d="M16 20c2.209 0 4-1.791 4-4s-1.791-4-4-4v0c-2.209 0-4 1.791-4 4s1.791 4 4 4v0z">
            </path>
        </symbol>

        <symbol id="icon-x-close" viewBox="0 0 32 32">
<path stroke-linejoin="round" stroke-linecap="round" stroke-miterlimit="4" stroke-width="2.6667" d="M24 8l-16 16"></path>
<path stroke-linejoin="round" stroke-linecap="round" stroke-miterlimit="4" stroke-width="2.6667" d="M8 8l16 16"></path>
</symbol>

        <symbol id="icon-drop-down" viewBox="0 0 30 32">
            <path fill="none" stroke-linejoin="round"
                stroke-linecap="round" stroke-miterlimit="4" stroke-width="3.3684"
                d="M7.579 12.211l7.579 7.579 7.579-7.579"></path>
        </symbol>
           <symbol id="icon-user" viewBox="0 0 32 32">
            <path fill="#1f1f1f" style="fill: var(--color1, #1f1f1f)"
                d="M3.765 0h24.471c2.079 0 3.765 1.686 3.765 3.765v24.471c0 2.079-1.686 3.765-3.765 3.765h-24.471c-2.079 0-3.765-1.686-3.765-3.765v-24.471c0-2.079 1.686-3.765 3.765-3.765z">
            </path>
            <path fill="#151515" style="fill: var(--color2, #151515)"
                d="M21.49 14.745c0 2.946-2.388 5.333-5.333 5.333s-5.333-2.388-5.333-5.333c0-2.946 2.388-5.333 5.333-5.333s5.333 2.388 5.333 5.333z">
            </path>
            <path fill="#151515" style="fill: var(--color2, #151515)"
                d="M29.060 32.853c0-1.723-0.339-3.429-0.999-5.020s-1.626-3.038-2.844-4.256c-1.218-1.218-2.664-2.184-4.256-2.844s-3.297-0.999-5.020-0.999c-1.723 0-3.429 0.339-5.020 0.999s-3.038 1.626-4.256 2.844c-1.218 1.218-2.184 2.664-2.844 4.256s-0.999 3.297-0.999 5.020h26.237z">
            </path>
        </symbol>
           <symbol id="icon-plus" viewBox="0 0 32 32">
            <path  stroke-linejoin="round" stroke-linecap="round" stroke-miterlimit="4" stroke-width="3.2"
                d="M16 6.666v18.667"></path>
            <path  stroke-linejoin="round" stroke-linecap="round" stroke-miterlimit="4" stroke-width="3.2"
                d="M6.667 16h18.667"></path>
        </symbol>
    </defs>
</svg>